<svg width="99" height="40" xmlns="http://www.w3.org/2000/svg">
    <path d="M11.67 24.796c3.093 0 6.185-2.492 6.185-6.514 0-4.021-3.092-6.556-6.184-6.556-3.484 0-6.097 2.535-6.097 6.556 0 4.022 2.613 6.514 6.097 6.514zm6.185-17.442h5.748v22.243C23.603 36.285 18.377 40 11.366 40h-1.023v-5.639h1.023c3.658 0 6.489-1.836 6.489-5.639v-1.435c-1.742 1.617-4.137 2.536-7.186 2.536C5.14 29.823 0 25.145 0 18.283 0 11.42 5.139 6.698 10.67 6.698c3.048 0 5.443.918 7.185 2.535v-1.88zm18.86 22.469c-5.53 0-10.669-4.678-10.669-11.54 0-6.863 5.139-11.584 10.67-11.584 3.048 0 5.443.918 7.185 2.535v-1.88h5.748v22.337h-5.748v-2.404c-1.742 1.617-4.137 2.536-7.185 2.536zm1.002-18.097c-3.484 0-6.097 2.535-6.097 6.556 0 4.022 2.613 6.514 6.097 6.514 3.092 0 6.184-2.492 6.184-6.514 0-4.021-3.092-6.556-6.184-6.556zm29.725-4.312h5.628v12.069c0 5.814-4.696 10.528-10.489 10.528-5.792 0-10.488-4.714-10.488-10.528V7.413h5.628v12.07c0 2.694 2.176 4.879 4.86 4.879 2.685 0 4.86-2.185 4.86-4.88V7.415zM80.97 18.399c0 4.022 2.613 6.514 6.097 6.514 3.092 0 6.184-2.492 6.184-6.514 0-4.021-3.092-6.557-6.184-6.557-3.484 0-6.097 2.536-6.097 6.557zm12.28 9.005c-1.741 1.618-4.136 2.536-7.185 2.536-5.53 0-10.669-4.678-10.669-11.54 0-6.863 5.139-11.584 10.67-11.584 3.048 0 5.443.918 7.185 2.535V0H99v21.687l-5.748 5.722v-.005z" fill="#243942" fill-rule="evenodd"/>
</svg>
